<?xml version="1.0" encoding="UTF-8"?>
<!DOCTYPE svg PUBLIC "-//W3C//DTD SVG 1.1//EN" "http://www.w3.org/Graphics/SVG/1.1/DTD/svg11.dtd">
<svg xmlns="http://www.w3.org/2000/svg" version="1.1" width="512px" height="512px" style="shape-rendering:geometricPrecision; text-rendering:geometricPrecision; image-rendering:optimizeQuality; fill-rule:evenodd; clip-rule:evenodd" xmlns:xlink="http://www.w3.org/1999/xlink">
<g><path style="opacity:0.992" fill="#000000" d="M 112.5,31.5 C 229.167,31.3333 345.834,31.5 462.5,32C 470.667,34.8333 476.167,40.3333 479,48.5C 479.667,165.167 479.667,281.833 479,398.5C 476.649,405.519 472.149,410.686 465.5,414C 454.578,415.431 443.578,415.931 432.5,415.5C 432.5,410.167 432.5,404.833 432.5,399.5C 440.174,399.666 447.841,399.5 455.5,399C 460,398.5 462.5,396 463,391.5C 463.667,279.5 463.667,167.5 463,55.5C 462.5,51 460,48.5 455.5,48C 343.5,47.3333 231.5,47.3333 119.5,48C 115,48.5 112.5,51 112,55.5C 111.5,64.1603 111.334,72.8269 111.5,81.5C 106.167,81.5 100.833,81.5 95.5,81.5C 95.0625,69.4242 95.5625,57.4242 97,45.5C 100.492,38.8344 105.659,34.1678 112.5,31.5 Z"/></g>
<g><path style="opacity:0.995" fill="#000000" d="M 48.5,95.5 C 165.167,95.3333 281.834,95.5 398.5,96C 406.667,98.8333 412.167,104.333 415,112.5C 415.667,229.167 415.667,345.833 415,462.5C 412.167,470.667 406.667,476.167 398.5,479C 281.833,479.667 165.167,479.667 48.5,479C 40.3333,476.167 34.8333,470.667 32,462.5C 31.3333,345.833 31.3333,229.167 32,112.5C 35.0191,104.316 40.5191,98.649 48.5,95.5 Z M 55.5,111.5 C 167.5,111.333 279.5,111.5 391.5,112C 396,112.5 398.5,115 399,119.5C 399.667,231.5 399.667,343.5 399,455.5C 398.5,460 396,462.5 391.5,463C 279.5,463.667 167.5,463.667 55.5,463C 51,462.5 48.5,460 48,455.5C 47.3333,343.5 47.3333,231.5 48,119.5C 48.6804,114.989 51.1804,112.323 55.5,111.5 Z"/></g>
</svg>
