<svg id="svg" version="1.1" xmlns="http://www.w3.org/2000/svg" xmlns:xlink="http://www.w3.org/1999/xlink" width="400" height="400" viewBox="0, 0, 400,400"><g id="svgg"><path id="path0" d="M57.801 26.399 C 57.664 26.619,56.483 26.800,55.176 26.800 C 53.859 26.800,52.800 26.978,52.800 27.200 C 52.800 27.420,52.080 27.600,51.200 27.600 C 50.320 27.600,49.600 27.780,49.600 28.000 C 49.600 28.220,49.071 28.400,48.424 28.400 C 47.777 28.400,47.136 28.580,47.000 28.800 C 46.864 29.020,46.313 29.200,45.776 29.200 C 45.239 29.200,44.800 29.380,44.800 29.600 C 44.800 29.820,44.350 30.000,43.800 30.000 C 43.250 30.000,42.800 30.180,42.800 30.400 C 42.800 30.620,42.440 30.800,42.000 30.800 C 41.560 30.800,41.200 30.980,41.200 31.200 C 41.200 31.420,40.840 31.600,40.400 31.600 C 39.960 31.600,39.600 31.780,39.600 32.000 C 39.600 32.220,39.240 32.400,38.800 32.400 C 38.360 32.400,38.000 32.580,38.000 32.800 C 38.000 33.020,37.764 33.200,37.475 33.200 C 37.187 33.200,36.564 33.560,36.092 34.000 C 35.620 34.440,35.028 34.800,34.777 34.800 C 34.526 34.800,33.817 35.340,33.200 36.000 C 32.583 36.660,31.878 37.200,31.632 37.200 C 31.035 37.200,22.400 45.815,22.400 46.411 C 22.400 46.669,21.860 47.383,21.200 48.000 C 20.540 48.617,20.000 49.409,20.000 49.760 C 20.000 50.112,19.820 50.400,19.600 50.400 C 19.380 50.400,19.200 50.720,19.200 51.112 C 19.200 51.503,18.840 52.083,18.400 52.400 C 17.960 52.717,17.600 53.297,17.600 53.688 C 17.600 54.080,17.420 54.400,17.200 54.400 C 16.980 54.400,16.800 54.760,16.800 55.200 C 16.800 55.640,16.620 56.000,16.400 56.000 C 16.180 56.000,16.000 56.272,16.000 56.605 C 16.000 56.938,15.820 57.568,15.600 58.005 C 15.380 58.442,15.020 59.158,14.800 59.595 C 14.580 60.032,14.400 60.752,14.400 61.195 C 14.400 61.638,14.220 62.000,14.000 62.000 C 13.780 62.000,13.600 62.619,13.600 63.376 C 13.600 64.133,13.420 64.864,13.200 65.000 C 12.980 65.136,12.800 65.957,12.800 66.824 C 12.800 67.691,12.620 68.400,12.400 68.400 C 12.169 68.400,12.000 69.659,12.000 71.376 C 12.000 73.013,11.820 74.464,11.600 74.600 C 11.046 74.942,11.046 248.258,11.600 248.600 C 11.820 248.736,12.000 250.176,12.000 251.800 C 12.000 253.424,12.180 254.864,12.400 255.000 C 12.620 255.136,12.800 255.856,12.800 256.600 C 12.800 257.344,12.980 258.064,13.200 258.200 C 13.420 258.336,13.600 259.067,13.600 259.824 C 13.600 260.581,13.780 261.200,14.000 261.200 C 14.220 261.200,14.400 261.740,14.400 262.400 C 14.400 263.060,14.580 263.600,14.800 263.600 C 15.020 263.600,15.200 263.872,15.200 264.205 C 15.200 264.538,15.361 265.123,15.558 265.505 C 15.755 265.887,16.502 267.415,17.218 268.900 C 17.934 270.385,18.673 271.600,18.860 271.600 C 19.047 271.600,19.200 271.960,19.200 272.400 C 19.200 272.840,19.380 273.200,19.600 273.200 C 19.820 273.200,20.000 273.398,20.000 273.640 C 20.000 273.881,20.540 274.583,21.200 275.200 C 21.860 275.817,22.400 276.512,22.400 276.745 C 22.400 277.483,30.929 286.400,31.634 286.400 C 31.839 286.400,32.572 286.940,33.263 287.600 C 33.954 288.260,34.762 288.800,35.059 288.800 C 35.357 288.800,35.600 288.980,35.600 289.200 C 35.600 289.420,35.960 289.600,36.400 289.600 C 36.840 289.600,37.200 289.747,37.200 289.926 C 37.200 290.324,39.801 291.600,40.614 291.600 C 40.936 291.600,41.200 291.780,41.200 292.000 C 41.200 292.220,41.560 292.400,42.000 292.400 C 42.440 292.400,42.800 292.580,42.800 292.800 C 42.800 293.020,43.250 293.200,43.800 293.200 C 44.350 293.200,44.800 293.380,44.800 293.600 C 44.800 293.820,45.239 294.000,45.776 294.000 C 46.313 294.000,46.864 294.180,47.000 294.400 C 47.136 294.620,47.777 294.800,48.424 294.800 C 49.071 294.800,49.600 294.980,49.600 295.200 C 49.600 295.420,50.320 295.600,51.200 295.600 C 52.080 295.600,52.800 295.780,52.800 296.000 C 52.800 296.222,53.867 296.400,55.200 296.400 C 56.533 296.400,57.600 296.578,57.600 296.800 C 57.600 297.026,58.733 297.200,60.198 297.200 L 62.796 297.200 62.898 334.900 L 63.000 372.600 64.000 372.488 C 64.550 372.427,65.060 372.202,65.133 371.988 C 65.207 371.775,65.546 371.600,65.886 371.600 C 66.227 371.600,66.797 371.284,67.153 370.897 C 67.509 370.511,68.295 369.940,68.900 369.630 C 69.505 369.319,70.000 368.915,70.000 368.732 C 70.000 368.550,70.225 368.397,70.500 368.393 C 71.010 368.385,73.003 366.916,74.694 365.300 C 75.212 364.805,75.858 364.400,76.130 364.400 C 76.401 364.400,76.883 364.040,77.200 363.600 C 77.517 363.160,78.057 362.800,78.400 362.800 C 78.743 362.800,79.283 362.440,79.600 362.000 C 79.917 361.560,80.362 361.200,80.588 361.199 C 80.815 361.199,81.630 360.659,82.400 360.000 C 83.170 359.341,84.012 358.801,84.271 358.801 C 84.531 358.800,84.981 358.574,85.271 358.299 C 85.562 358.023,87.240 356.818,89.000 355.621 C 90.760 354.424,92.491 353.119,92.847 352.722 C 93.203 352.325,93.748 352.000,94.059 352.000 C 94.369 352.000,94.883 351.640,95.200 351.200 C 95.517 350.760,96.057 350.400,96.400 350.400 C 96.743 350.400,97.283 350.040,97.600 349.600 C 97.917 349.160,98.380 348.800,98.629 348.800 C 98.878 348.800,99.646 348.260,100.337 347.600 C 101.028 346.940,101.825 346.400,102.108 346.400 C 102.391 346.400,102.883 346.040,103.200 345.600 C 103.517 345.160,104.057 344.800,104.400 344.800 C 104.743 344.800,105.283 344.440,105.600 344.000 C 105.917 343.560,106.407 343.200,106.688 343.200 C 106.970 343.200,107.200 343.020,107.200 342.800 C 107.200 342.580,107.470 342.400,107.800 342.400 C 108.130 342.400,108.400 342.232,108.400 342.027 C 108.400 341.822,108.805 341.526,109.300 341.370 C 109.795 341.213,110.470 340.795,110.800 340.440 C 111.130 340.085,111.895 339.540,112.500 339.230 C 113.105 338.919,113.600 338.515,113.600 338.332 C 113.600 338.150,113.825 338.000,114.100 338.000 C 114.375 337.999,115.123 337.549,115.762 337.000 C 116.401 336.450,117.068 336.000,117.244 336.000 C 117.420 336.000,118.014 335.550,118.564 335.000 C 119.114 334.450,119.776 334.000,120.035 334.000 C 120.294 334.000,120.797 333.684,121.153 333.297 C 121.509 332.911,122.295 332.340,122.900 332.030 C 123.505 331.719,124.000 331.315,124.000 331.132 C 124.000 330.950,124.230 330.800,124.512 330.800 C 124.793 330.800,125.283 330.440,125.600 330.000 C 125.917 329.560,126.380 329.200,126.629 329.200 C 126.878 329.200,127.646 328.660,128.337 328.000 C 129.028 327.340,129.825 326.800,130.108 326.800 C 130.391 326.800,130.883 326.440,131.200 326.000 C 131.517 325.560,132.006 325.200,132.287 325.200 C 132.712 325.200,136.532 322.720,137.200 322.011 C 137.310 321.894,137.895 321.544,138.500 321.232 C 139.105 320.920,139.600 320.515,139.600 320.332 C 139.600 320.150,139.830 320.000,140.112 320.000 C 140.393 320.000,140.883 319.640,141.200 319.200 C 141.517 318.760,142.015 318.400,142.306 318.400 C 142.598 318.400,143.286 317.950,143.836 317.400 C 144.386 316.850,145.000 316.400,145.200 316.400 C 145.400 316.400,146.014 315.950,146.564 315.400 C 147.114 314.850,147.802 314.400,148.094 314.400 C 148.385 314.400,148.883 314.040,149.200 313.600 C 149.517 313.160,150.057 312.800,150.400 312.800 C 150.743 312.800,151.283 312.440,151.600 312.000 C 151.917 311.560,152.407 311.200,152.688 311.200 C 152.970 311.200,153.200 311.020,153.200 310.800 C 153.200 310.580,153.430 310.400,153.712 310.400 C 153.993 310.400,154.483 310.040,154.800 309.600 C 155.117 309.160,155.619 308.800,155.915 308.800 C 156.414 308.800,158.701 307.262,159.929 306.100 C 160.219 305.825,160.616 305.600,160.810 305.600 C 161.005 305.600,161.614 305.150,162.164 304.600 C 162.714 304.050,163.402 303.600,163.694 303.600 C 163.985 303.600,164.483 303.240,164.800 302.800 C 165.117 302.360,165.657 302.000,166.000 302.000 C 166.343 302.000,166.883 301.640,167.200 301.200 C 167.517 300.760,167.962 300.400,168.188 300.399 C 168.415 300.399,169.230 299.859,170.000 299.200 C 170.770 298.541,171.625 298.001,171.900 298.001 C 172.175 298.000,172.400 297.820,172.400 297.600 C 172.400 297.335,200.859 297.200,256.976 297.200 C 312.929 297.200,341.636 297.065,341.800 296.800 C 341.936 296.580,343.207 296.400,344.624 296.400 C 346.075 296.400,347.200 296.225,347.200 296.000 C 347.200 295.780,347.819 295.600,348.576 295.600 C 349.333 295.600,350.064 295.420,350.200 295.200 C 350.336 294.980,350.977 294.800,351.624 294.800 C 352.271 294.800,352.800 294.620,352.800 294.400 C 352.800 294.180,353.239 294.000,353.776 294.000 C 354.313 294.000,354.864 293.820,355.000 293.600 C 355.136 293.380,355.597 293.200,356.024 293.200 C 356.451 293.200,356.800 293.020,356.800 292.800 C 356.800 292.580,357.160 292.400,357.600 292.400 C 358.040 292.400,358.400 292.234,358.400 292.032 C 358.400 291.829,358.985 291.537,359.700 291.382 C 360.415 291.226,361.090 290.987,361.200 290.850 C 361.310 290.712,362.210 290.163,363.200 289.630 C 364.190 289.096,365.090 288.538,365.200 288.390 C 365.310 288.241,365.814 287.902,366.319 287.635 C 368.220 286.634,376.000 279.181,376.000 278.362 C 376.000 278.119,376.540 277.417,377.200 276.800 C 377.860 276.183,378.400 275.481,378.400 275.240 C 378.400 274.998,378.580 274.800,378.800 274.800 C 379.020 274.800,379.200 274.530,379.200 274.200 C 379.200 273.870,379.380 273.600,379.600 273.600 C 379.820 273.600,380.000 273.330,380.000 273.000 C 380.000 272.670,380.135 272.399,380.300 272.397 C 380.465 272.395,380.799 271.990,381.041 271.497 C 381.284 271.004,382.049 269.547,382.741 268.259 C 383.434 266.972,384.000 265.577,384.000 265.159 C 384.000 264.742,384.180 264.400,384.400 264.400 C 384.620 264.400,384.800 263.961,384.800 263.424 C 384.800 262.887,384.980 262.336,385.200 262.200 C 385.420 262.064,385.600 261.524,385.600 261.000 C 385.600 260.476,385.780 259.936,386.000 259.800 C 386.220 259.664,386.400 259.034,386.400 258.400 C 386.400 257.766,386.580 257.136,386.800 257.000 C 387.020 256.864,387.200 255.874,387.200 254.800 C 387.200 253.726,387.380 252.736,387.600 252.600 C 388.120 252.278,388.157 70.800,387.637 70.800 C 387.437 70.800,387.178 69.855,387.061 68.700 C 386.733 65.476,386.347 63.615,385.956 63.373 C 385.760 63.252,385.600 62.801,385.600 62.371 C 385.600 61.616,385.456 61.226,384.462 59.305 C 384.208 58.813,384.000 58.048,384.000 57.605 C 384.000 57.162,383.820 56.800,383.600 56.800 C 383.380 56.800,383.200 56.440,383.200 56.000 C 383.200 55.560,383.020 55.200,382.800 55.200 C 382.580 55.200,382.400 54.840,382.400 54.400 C 382.400 53.960,382.220 53.600,382.000 53.600 C 381.780 53.600,381.600 53.364,381.600 53.075 C 381.600 52.787,381.240 52.164,380.800 51.692 C 380.360 51.220,380.000 50.596,380.000 50.305 C 380.000 50.014,379.640 49.517,379.200 49.200 C 378.760 48.883,378.400 48.375,378.400 48.072 C 378.400 47.769,377.860 47.017,377.200 46.400 C 376.540 45.783,376.000 45.173,376.000 45.043 C 376.000 44.321,369.710 38.000,368.992 38.000 C 368.882 38.000,368.228 37.460,367.537 36.800 C 366.846 36.140,366.078 35.600,365.829 35.600 C 365.580 35.600,365.117 35.240,364.800 34.800 C 364.483 34.360,363.903 34.000,363.512 34.000 C 363.120 34.000,362.800 33.820,362.800 33.600 C 362.800 33.380,362.455 33.200,362.033 33.200 C 361.612 33.200,361.207 33.047,361.133 32.860 C 360.943 32.376,354.308 29.200,353.486 29.200 C 353.109 29.200,352.800 29.020,352.800 28.800 C 352.800 28.580,352.271 28.400,351.624 28.400 C 350.977 28.400,350.336 28.220,350.200 28.000 C 350.064 27.780,349.369 27.600,348.656 27.600 C 347.943 27.600,347.189 27.436,346.980 27.235 C 346.771 27.035,345.520 26.743,344.200 26.588 C 340.251 26.123,58.086 25.937,57.801 26.399 M338.200 50.000 C 338.336 50.220,339.427 50.400,340.624 50.400 C 341.821 50.400,342.800 50.580,342.800 50.800 C 342.800 51.020,343.239 51.200,343.776 51.200 C 344.313 51.200,344.864 51.380,345.000 51.600 C 345.136 51.820,345.687 52.000,346.224 52.000 C 346.761 52.000,347.200 52.180,347.200 52.400 C 347.200 52.620,347.560 52.800,348.000 52.800 C 348.440 52.800,348.800 52.980,348.800 53.200 C 348.800 53.420,349.160 53.600,349.600 53.600 C 350.040 53.600,350.400 53.751,350.400 53.936 C 350.400 54.120,350.830 54.467,351.355 54.707 C 353.265 55.577,358.484 60.638,359.246 62.359 C 359.548 63.041,359.931 63.600,360.098 63.600 C 360.264 63.600,360.400 63.960,360.400 64.400 C 360.400 64.840,360.535 65.201,360.700 65.203 C 361.059 65.207,362.000 67.144,362.000 67.880 C 362.000 68.166,362.180 68.400,362.400 68.400 C 362.620 68.400,362.800 68.940,362.800 69.600 C 362.800 70.260,362.961 70.800,363.158 70.800 C 364.171 70.800,365.010 248.350,364.002 249.358 C 363.781 249.579,363.600 250.444,363.600 251.280 C 363.600 252.116,363.420 252.800,363.200 252.800 C 362.980 252.800,362.800 253.340,362.800 254.000 C 362.800 254.660,362.620 255.200,362.400 255.200 C 362.180 255.200,362.000 255.560,362.000 256.000 C 362.000 256.440,361.820 256.800,361.600 256.800 C 361.380 256.800,361.200 257.160,361.200 257.600 C 361.200 258.040,361.065 258.402,360.900 258.405 C 360.735 258.407,360.244 259.153,359.808 260.062 C 358.988 261.772,352.788 268.400,352.008 268.400 C 351.765 268.400,351.180 268.760,350.708 269.200 C 350.236 269.640,349.613 270.000,349.325 270.000 C 349.036 270.000,348.800 270.180,348.800 270.400 C 348.800 270.620,348.440 270.800,348.000 270.800 C 347.560 270.800,347.200 270.980,347.200 271.200 C 347.200 271.420,346.660 271.600,346.000 271.600 C 345.340 271.600,344.800 271.780,344.800 272.000 C 344.800 272.220,344.361 272.400,343.824 272.400 C 343.287 272.400,342.736 272.580,342.600 272.800 C 342.464 273.020,341.373 273.200,340.176 273.200 C 338.979 273.200,338.000 273.380,338.000 273.600 C 338.000 273.865,308.678 274.000,250.833 274.000 C 202.892 274.000,163.607 274.153,163.533 274.340 C 163.420 274.630,161.752 275.820,159.246 277.400 C 158.897 277.620,158.318 278.115,157.959 278.500 C 157.600 278.885,157.052 279.200,156.741 279.200 C 156.431 279.200,155.917 279.560,155.600 280.000 C 155.283 280.440,154.838 280.800,154.612 280.800 C 154.385 280.801,153.677 281.251,153.038 281.800 C 152.399 282.350,151.732 282.800,151.556 282.800 C 151.380 282.800,150.786 283.250,150.236 283.800 C 149.686 284.350,149.024 284.800,148.765 284.800 C 148.506 284.800,148.003 285.116,147.647 285.503 C 147.291 285.889,146.505 286.460,145.900 286.770 C 145.295 287.081,144.800 287.485,144.800 287.668 C 144.800 287.850,144.610 288.000,144.378 288.000 C 144.146 288.000,143.381 288.539,142.678 289.198 C 141.975 289.857,141.175 290.397,140.900 290.398 C 140.625 290.399,140.400 290.567,140.400 290.771 C 140.400 290.975,139.680 291.460,138.800 291.848 C 137.920 292.236,137.200 292.687,137.200 292.850 C 137.200 293.013,136.862 293.253,136.449 293.384 C 136.036 293.516,135.181 294.067,134.549 294.611 C 133.917 295.154,133.215 295.599,132.988 295.600 C 132.762 295.600,132.317 295.960,132.000 296.400 C 131.683 296.840,131.169 297.200,130.859 297.200 C 130.548 297.200,130.003 297.516,129.647 297.903 C 129.291 298.289,128.505 298.860,127.900 299.170 C 127.295 299.481,126.800 299.885,126.800 300.068 C 126.800 300.250,126.618 300.400,126.396 300.400 C 126.174 300.400,125.428 300.940,124.737 301.600 C 124.046 302.260,123.278 302.800,123.029 302.800 C 122.780 302.800,122.317 303.160,122.000 303.600 C 121.683 304.040,121.143 304.400,120.800 304.400 C 120.457 304.400,119.917 304.760,119.600 305.200 C 119.283 305.640,118.743 306.000,118.400 306.000 C 118.057 306.000,117.517 306.360,117.200 306.800 C 116.883 307.240,116.393 307.600,116.112 307.600 C 115.830 307.600,115.600 307.780,115.600 308.000 C 115.600 308.220,115.428 308.400,115.218 308.400 C 114.850 308.400,112.316 309.955,111.317 310.794 C 111.051 311.017,110.646 311.200,110.417 311.200 C 110.188 311.200,110.000 311.341,110.000 311.514 C 110.000 311.686,109.455 312.149,108.789 312.543 C 108.123 312.936,107.141 313.695,106.607 314.229 C 106.073 314.763,105.398 315.200,105.106 315.200 C 104.815 315.200,104.317 315.560,104.000 316.000 C 103.683 316.440,103.143 316.800,102.800 316.800 C 102.457 316.800,101.917 317.160,101.600 317.600 C 101.283 318.040,100.838 318.400,100.612 318.401 C 100.385 318.401,99.570 318.941,98.800 319.600 C 98.030 320.259,97.215 320.799,96.988 320.799 C 96.762 320.800,96.317 321.160,96.000 321.600 C 95.683 322.040,95.143 322.400,94.800 322.400 C 94.457 322.400,93.917 322.760,93.600 323.200 C 93.283 323.640,92.793 324.000,92.512 324.000 C 92.230 324.000,92.000 324.159,92.000 324.354 C 92.000 324.549,91.325 325.027,90.500 325.416 C 89.675 325.806,88.709 326.456,88.353 326.862 C 86.359 329.137,86.400 329.686,86.400 300.800 L 86.400 274.000 74.224 274.000 C 66.537 274.000,61.956 273.852,61.800 273.600 C 61.664 273.380,60.573 273.200,59.376 273.200 C 58.179 273.200,57.200 273.020,57.200 272.800 C 57.200 272.580,56.570 272.400,55.800 272.400 C 55.030 272.400,54.400 272.220,54.400 272.000 C 54.400 271.780,54.040 271.600,53.600 271.600 C 53.160 271.600,52.800 271.420,52.800 271.200 C 52.800 270.980,52.440 270.800,52.000 270.800 C 51.560 270.800,51.200 270.620,51.200 270.400 C 51.200 270.180,50.840 270.000,50.400 270.000 C 49.960 270.000,49.600 269.820,49.600 269.600 C 49.600 269.380,49.312 269.200,48.960 269.200 C 48.609 269.200,47.817 268.660,47.200 268.000 C 46.583 267.340,45.916 266.800,45.718 266.800 C 45.177 266.800,42.400 264.160,42.400 263.646 C 42.400 263.401,42.220 263.200,42.000 263.200 C 41.780 263.200,41.600 262.961,41.600 262.670 C 41.600 262.378,41.184 261.748,40.675 261.270 C 40.166 260.792,39.503 259.771,39.200 259.001 C 38.898 258.230,38.504 257.600,38.325 257.600 C 38.146 257.600,38.000 257.240,38.000 256.800 C 38.000 256.360,37.820 256.000,37.600 256.000 C 37.380 256.000,37.200 255.460,37.200 254.800 C 37.200 254.140,37.020 253.600,36.800 253.600 C 36.580 253.600,36.400 253.060,36.400 252.400 C 36.400 251.740,36.220 251.200,36.000 251.200 C 35.771 251.200,35.600 250.000,35.600 248.400 C 35.600 246.800,35.429 245.600,35.200 245.600 C 34.646 245.600,34.646 78.143,35.200 77.800 C 35.420 77.664,35.600 76.404,35.600 75.000 C 35.600 73.596,35.780 72.336,36.000 72.200 C 36.220 72.064,36.400 71.524,36.400 71.000 C 36.400 70.476,36.580 69.936,36.800 69.800 C 37.020 69.664,37.200 69.239,37.200 68.856 C 37.200 67.981,38.099 66.007,38.500 66.003 C 38.665 66.001,38.800 65.640,38.800 65.200 C 38.800 64.760,38.980 64.400,39.200 64.400 C 39.420 64.400,39.600 64.122,39.600 63.783 C 39.600 63.444,39.972 62.769,40.426 62.283 C 40.881 61.797,41.531 60.815,41.872 60.100 C 42.213 59.385,42.632 58.800,42.803 58.800 C 42.975 58.800,43.693 58.260,44.400 57.600 C 45.107 56.940,45.837 56.400,46.024 56.400 C 46.211 56.400,46.814 55.950,47.364 55.400 C 47.914 54.850,48.627 54.400,48.948 54.400 C 49.270 54.400,49.593 54.265,49.667 54.100 C 49.859 53.668,53.172 52.000,53.838 52.000 C 54.147 52.000,54.400 51.820,54.400 51.600 C 54.400 51.380,54.940 51.200,55.600 51.200 C 56.260 51.200,56.800 51.020,56.800 50.800 C 56.800 50.580,57.790 50.400,59.000 50.400 C 60.210 50.400,61.200 50.220,61.200 50.000 C 61.200 49.445,337.857 49.445,338.200 50.000 M112.000 115.199 L 112.000 126.800 200.006 126.800 L 288.012 126.800 287.906 115.300 L 287.800 103.800 199.900 103.699 L 112.000 103.598 112.000 115.199 M112.000 162.200 L 112.000 174.002 199.900 173.901 L 287.800 173.800 287.800 162.200 L 287.800 150.600 199.900 150.499 L 112.000 150.398 112.000 162.200 M112.268 197.466 C 112.120 197.613,112.000 202.923,112.000 209.267 L 112.000 220.800 200.006 220.800 L 288.012 220.800 287.906 209.100 L 287.800 197.400 200.168 197.299 C 151.970 197.244,112.415 197.319,112.268 197.466 " stroke="none" fill="#040404" fill-rule="evenodd"></path><path id="path1" d="" stroke="none" fill="#080404" fill-rule="evenodd"></path><path id="path2" d="" stroke="none" fill="#080404" fill-rule="evenodd"></path><path id="path3" d="" stroke="none" fill="#080404" fill-rule="evenodd"></path><path id="path4" d="" stroke="none" fill="#080404" fill-rule="evenodd"></path></g></svg>